<svg width="53" height="53" viewBox="0 0 53 53" fill="none" xmlns="http://www.w3.org/2000/svg">
<g id="Objectives 1">
<path id="Vector" d="M6.00391 27.7422C6.00391 27.8565 5.9112 27.9492 5.79688 27.9492C5.68255 27.9492 5.58984 27.8565 5.58984 27.7422M6.00391 27.7422H5.58984M6.00391 27.7422C6.00391 24.4582 6.89857 21.3816 8.4595 18.7381M5.58984 27.7422C5.58984 24.382 6.50546 21.2329 8.103 18.5276M8.103 18.5276C8.16113 18.4291 8.28804 18.3964 8.3865 18.4546C8.48497 18.5127 8.51768 18.6396 8.4595 18.7381M8.103 18.5276L8.4595 18.7381" stroke="white"/>
<path id="Vector_2" d="M39.9676 33.0597C40.0037 32.9512 40.1209 32.8925 40.2294 32.9286C40.3379 32.9647 40.3966 33.0819 40.3605 33.1904M39.9676 33.0597L40.3605 33.1904M39.9676 33.0597C37.6734 39.9579 31.2117 44.9258 23.6016 44.9258M40.3605 33.1904C38.0123 40.2509 31.3972 45.3399 23.6016 45.3399M23.6016 45.3399C23.4872 45.3399 23.3945 45.2471 23.3945 45.1329C23.3945 45.0186 23.4872 44.9258 23.6016 44.9258M23.6016 45.3399V44.9258" stroke="white"/>
<path id="Vector_3" d="M34.6091 19.99C34.5456 19.895 34.5712 19.7664 34.6662 19.7029C34.7613 19.6394 34.8899 19.6649 34.9534 19.76M34.6091 19.99L34.9534 19.76M34.6091 19.99C35.5902 21.4582 36.2938 23.1123 36.6486 24.8844M34.9534 19.76C35.9635 21.2716 36.6888 22.976 37.0546 24.8031M37.0546 24.8031C37.077 24.9152 37.0043 25.0243 36.8922 25.0468C36.7801 25.0692 36.671 24.9965 36.6486 24.8844M37.0546 24.8031L36.6486 24.8844" stroke="#D8D8D8"/>
<path id="Vector_4" d="M36.6483 30.1496C36.6699 30.0373 36.7784 29.9638 36.8907 29.9855C37.003 30.0071 37.0765 30.1156 37.0549 30.2279M36.6483 30.1496L37.0549 30.2279M36.6483 30.1496C35.4356 36.4463 29.9252 41.1992 23.3135 41.1992M37.0549 30.2279C35.8056 36.7141 30.1291 41.6133 23.3135 41.6133M31.5608 16.1588C31.653 16.2265 31.6728 16.3561 31.6051 16.4483C31.5374 16.5404 31.4078 16.5602 31.3157 16.4925M31.5608 16.1588L31.3157 16.4925M31.5608 16.1588C29.248 14.46 26.3966 13.457 23.3135 13.457M31.3157 16.4925C29.0714 14.8441 26.3053 13.8711 23.3135 13.8711M23.3135 41.6133V41.1992M23.3135 41.6133C15.5819 41.6133 9.31641 35.3093 9.31641 27.5352M23.3135 41.1992C15.8128 41.1992 9.73047 35.0829 9.73047 27.5352M9.31641 27.5352H9.73047M9.31641 27.5352C9.31641 19.7611 15.5819 13.457 23.3135 13.457M9.73047 27.5352C9.73047 19.9875 15.8128 13.8711 23.3135 13.8711M23.3135 13.457V13.8711" stroke="#D8D8D8"/>
<path id="Vector_5" d="M13.35 8.98859C13.2499 9.04383 13.1239 9.00743 13.0687 8.90731C13.0135 8.80723 13.0499 8.68128 13.15 8.62604M13.35 8.98859L13.15 8.62604M13.35 8.98859C16.322 7.34895 19.7234 6.41797 23.3372 6.41797M13.15 8.62604C16.1814 6.95364 19.6513 6.00391 23.3372 6.00391M34.0583 8.93108C34.1568 8.98917 34.1895 9.11608 34.1314 9.21459C34.0733 9.31305 33.9464 9.3458 33.8479 9.28767M34.0583 8.93108L33.8479 9.28767M34.0583 8.93108C30.9032 7.06962 27.2418 6.00391 23.3372 6.00391M33.8479 9.28767C30.7543 7.46257 27.1654 6.41797 23.3372 6.41797M23.3372 6.00391V6.41797" stroke="white"/>
<path id="Vector_6" d="M14.1687 46.6028C14.2715 46.6529 14.3143 46.7767 14.2643 46.8798C14.2143 46.9825 14.0904 47.0251 13.9876 46.9754M14.1687 46.6028L13.9876 46.9754M14.1687 46.6028C7.12672 43.1781 2.27734 35.9839 2.27734 27.664M13.9876 46.9754C6.80942 43.4845 1.86328 36.1493 1.86328 27.664M4.54438 17.2901C4.5999 17.1902 4.72594 17.1542 4.8259 17.2097C4.92585 17.2652 4.96188 17.3912 4.90635 17.4912M4.54438 17.2901L4.90635 17.4912M4.54438 17.2901C2.83593 20.3654 1.86328 23.9024 1.86328 27.664M4.90635 17.4912C3.23114 20.5067 2.27734 23.9746 2.27734 27.664M1.86328 27.664H2.27734" stroke="white"/>
<path id="Vector_7" d="M43.279 33.8911C43.3134 33.7821 43.4293 33.7214 43.5387 33.7557C43.6476 33.7899 43.7084 33.9061 43.6741 34.0152M43.279 33.8911L43.6741 34.0152M43.279 33.8911C41.6017 39.2335 37.8723 43.6493 33.0288 46.1916M43.6741 34.0152C41.9636 39.4624 38.1614 43.9652 33.2212 46.5585M33.2212 46.5585C33.12 46.6115 32.9948 46.5726 32.9417 46.4711C32.8885 46.3701 32.9275 46.245 33.0288 46.1916M33.2212 46.5585L33.0288 46.1916" stroke="white"/>
<path id="Vector_8" d="M42.0559 18.3235C41.9979 18.2248 42.0311 18.098 42.1296 18.0402C42.2281 17.9824 42.3553 18.0154 42.4128 18.1141M42.0559 18.3235L42.4128 18.1141M42.0559 18.3235C42.7399 19.4908 43.2915 20.7239 43.6931 22.0072M42.4128 18.1141C43.1126 19.3075 43.677 20.5692 44.0881 21.8835M44.0881 21.8835C44.1225 21.9926 44.0616 22.1088 43.9523 22.1429C43.8434 22.1771 43.7271 22.1163 43.6931 22.0072M44.0881 21.8835L43.6931 22.0072" stroke="white"/>
<path id="Vector_9" d="M30.8899 23.3128C30.8207 23.2217 30.8384 23.0918 30.9294 23.0227C31.0205 22.9535 31.1504 22.9712 31.2195 23.0623M30.8899 23.3128L31.2195 23.0623M30.8899 23.3128C31.4561 24.0582 31.8674 24.8698 32.0969 25.7255M31.2195 23.0623C31.815 23.8462 32.2521 24.7058 32.4968 25.6182M32.4968 25.6182C32.5265 25.7287 32.461 25.8422 32.3505 25.8718C32.2401 25.9015 32.1265 25.836 32.0969 25.7255M32.4968 25.6182L32.0969 25.7255" stroke="#D8D8D8"/>
<path id="Vector_10" d="M31.6851 30.0631C31.7189 29.9539 31.8349 29.8928 31.9441 29.9267C32.0534 29.9605 32.1144 30.0765 32.0806 30.1857M31.6851 30.0631L32.0806 30.1857M31.6851 30.0631C30.5788 33.6299 27.1892 36.2305 23.176 36.2305M32.0806 30.1857C30.9205 33.9258 27.3706 36.6445 23.176 36.6445M27.9205 19.6972C28.0194 19.7546 28.0529 19.8813 27.9955 19.9802C27.938 20.0791 27.8113 20.1126 27.7125 20.0552M27.9205 19.6972L27.7125 20.0552M27.9205 19.6972C26.531 18.8897 24.9086 18.4258 23.176 18.4258M27.7125 20.0552C26.3847 19.2836 24.8339 18.8398 23.176 18.8398M23.176 36.6445V36.2305M23.176 36.6445C18.0416 36.6445 13.8711 32.5701 13.8711 27.5352M23.176 36.2305C18.2617 36.2305 14.2852 32.3329 14.2852 27.5352M13.8711 27.5352H14.2852M13.8711 27.5352C13.8711 22.5002 18.0416 18.4258 23.176 18.4258M14.2852 27.5352C14.2852 22.7374 18.2617 18.8398 23.176 18.8398M23.176 18.4258V18.8398" stroke="#D8D8D8"/>
<path id="Vector_11" d="M27.1371 29.0144C27.1813 28.9089 27.3025 28.8591 27.408 28.9033C27.5135 28.9474 27.5632 29.0687 27.5191 29.1742M27.1371 29.0144L27.5191 29.1742M27.1371 29.0144C26.4825 30.579 24.9459 31.6758 23.1566 31.6758M27.5191 29.1742C26.8028 30.8861 25.1199 32.0898 23.1566 32.0898M25.2373 23.0503C25.3398 23.101 25.3818 23.2251 25.3312 23.3277C25.2805 23.4301 25.1564 23.4722 25.0538 23.4216M25.2373 23.0503L25.0538 23.4216M25.2373 23.0503C24.6096 22.7402 23.9031 22.5664 23.1566 22.5664M25.0538 23.4216C24.482 23.139 23.8382 22.9805 23.1566 22.9805M23.1566 32.0898V31.6758M23.1566 32.0898C20.5426 32.0898 18.4258 29.9565 18.4258 27.3281M23.1566 31.6758C20.7739 31.6758 18.8398 29.7305 18.8398 27.3281M18.4258 27.3281H18.8398M18.4258 27.3281C18.4258 24.6997 20.5426 22.5664 23.1566 22.5664M18.8398 27.3281C18.8398 24.9257 20.7739 22.9805 23.1566 22.9805M23.1566 22.5664V22.9805" stroke="#D8D8D8"/>
<g id="Vector_12">
<path d="M23.6016 27.5352C23.4872 27.5352 23.3945 27.4424 23.3945 27.3281C23.3945 27.2138 23.4872 27.1211 23.6016 27.1211V27.5352ZM51.3438 27.1211C51.458 27.1211 51.5508 27.2138 51.5508 27.3281C51.5508 27.4424 51.458 27.5352 51.3438 27.5352V27.1211ZM23.6016 27.1211H51.3438V27.5352H23.6016V27.1211Z" fill="white"/>
<path d="M23.6016 27.5352C23.4872 27.5352 23.3945 27.4424 23.3945 27.3281C23.3945 27.2138 23.4872 27.1211 23.6016 27.1211M23.6016 27.5352V27.1211M23.6016 27.5352H51.3438M23.6016 27.1211H51.3438M51.3438 27.1211C51.458 27.1211 51.5508 27.2138 51.5508 27.3281C51.5508 27.4424 51.458 27.5352 51.3438 27.5352M51.3438 27.1211V27.5352" stroke="white"/>
</g>
<path id="Vector_13" d="M46.88 27.2447L46.6927 27.5235L46.88 27.8023L48.3594 30.005V30.1406H44.4085L42.3203 28.0901V26.9584L44.4071 24.9297H48.3594V25.0421L46.88 27.2447Z" fill="#1475D4" stroke="white"/>
<g id="Vector_14">
<path d="M23.7463 27.4761C23.6646 27.5561 23.5335 27.5546 23.4536 27.4729C23.3736 27.3912 23.3751 27.2601 23.4568 27.1801L23.7463 27.4761ZM42.5035 8.54731C42.5855 8.46736 42.7163 8.46881 42.7962 8.55054C42.8766 8.63224 42.8749 8.76333 42.7933 8.84329L42.5035 8.54731ZM23.4568 27.1801L42.5035 8.54731L42.7933 8.84329L23.7463 27.4761L23.4568 27.1801Z" fill="white"/>
<path d="M23.7463 27.4761C23.6646 27.5561 23.5335 27.5546 23.4536 27.4729C23.3736 27.3912 23.3751 27.2601 23.4568 27.1801M23.7463 27.4761L23.4568 27.1801M23.7463 27.4761L42.7933 8.84329M23.4568 27.1801L42.5035 8.54731M42.5035 8.54731C42.5855 8.46736 42.7163 8.46881 42.7962 8.55054C42.8766 8.63224 42.8749 8.76333 42.7933 8.84329M42.5035 8.54731L42.7933 8.84329" stroke="white"/>
</g>
<path id="Vector_15" d="M36.4863 14.9051L36.4859 14.9048L36.1094 14.6296V11.5764L38.9932 8.57958L39.0934 8.67893L39.6335 11.4315L39.6982 11.7616L40.0284 11.826L42.6857 12.3443L42.7511 12.4034L39.9172 15.2344H36.9359L36.4863 14.9051Z" fill="#1475D4" stroke="white"/>
</g>
</svg>
